<?xml version="1.0" standalone="no"?>
<!DOCTYPE svg PUBLIC "-//W3C//DTD SVG 20010904//EN"
 "http://www.w3.org/TR/2001/REC-SVG-20010904/DTD/svg10.dtd">
<svg version="1.0" xmlns="http://www.w3.org/2000/svg"
 width="48.000000pt" height="48.000000pt" viewBox="0 0 48.000000 48.000000"
 preserveAspectRatio="xMidYMid meet">

<g transform="translate(0.000000,48.000000) scale(0.100000,-0.100000)"
fill="#000000" stroke="none">
<path d="M219 455 c-12 -12 -21 -14 -43 -6 -23 10 -28 8 -38 -14 -6 -15 -21
-25 -37 -27 -20 -2 -27 -9 -29 -31 -2 -18 -12 -32 -27 -39 -19 -9 -22 -16 -18
-42 3 -22 0 -36 -11 -45 -13 -11 -14 -16 -4 -29 10 -12 10 -16 1 -19 -9 -3 -8
-13 4 -39 16 -32 16 -37 0 -69 l-17 -35 64 0 c57 0 64 -2 74 -25 10 -22 15
-24 38 -15 21 8 31 7 44 -5 21 -19 29 -19 51 1 13 12 22 13 38 5 17 -10 23 -7
37 14 14 22 23 25 75 25 33 0 59 2 59 5 0 4 -7 19 -15 35 -14 27 -14 33 1 61
10 21 12 34 5 38 -6 4 -6 12 -1 20 5 9 3 23 -6 37 -9 13 -12 32 -9 46 5 19 1
29 -19 42 -16 10 -26 26 -26 41 0 20 -5 25 -24 25 -14 0 -31 9 -40 21 -10 15
-21 20 -38 16 -13 -3 -31 0 -42 9 -25 18 -28 18 -47 -1z m47 -19 c13 -10 25
-11 35 -5 21 13 25 11 37 -16 8 -17 20 -25 37 -25 20 0 25 -5 25 -25 0 -14 8
-29 21 -35 15 -8 19 -18 15 -34 -3 -13 1 -32 10 -45 12 -17 13 -25 4 -36 -22
-26 -40 -18 -40 18 0 88 -80 167 -171 167 -84 0 -159 -74 -159 -156 0 -49 -15
-57 -44 -25 -15 17 -15 19 0 32 10 9 14 22 10 41 -4 21 -1 30 14 38 12 6 20
21 20 35 0 20 5 25 25 25 15 0 31 9 41 24 13 21 20 23 39 16 17 -6 27 -5 35 6
15 18 20 18 46 0z m59 -76 c41 -25 65 -70 65 -119 l0 -41 -150 0 -150 0 0 35
c0 42 18 81 53 113 48 45 121 49 182 12z m129 -187 c-10 -23 -10 -63 0 -85 8
-17 -6 -18 -209 -18 l-217 0 7 23 c9 28 9 46 0 75 l-7 22 217 0 c203 0 217 -1
209 -17z m-120 -128 c-4 -10 -14 -13 -30 -9 -14 4 -31 1 -39 -6 -13 -10 -20
-11 -39 -1 -13 7 -33 11 -46 9 -13 -1 -25 3 -27 10 -4 9 19 12 91 12 80 0 94
-2 90 -15z"/>
<path d="M233 351 c-4 -16 -13 -21 -39 -21 l-34 0 0 -56 0 -55 73 7 c39 3 75
9 80 11 4 2 7 20 7 40 0 26 -5 36 -19 40 -11 3 -21 15 -23 26 -4 29 -38 35
-45 8z m37 -21 c0 -11 7 -20 15 -20 10 0 15 -11 15 -35 0 -34 -1 -35 -40 -35
-38 0 -40 2 -40 31 0 29 26 78 43 79 4 0 7 -9 7 -20z m-70 -55 c0 -19 -4 -35
-10 -35 -5 0 -10 16 -10 35 0 19 5 35 10 35 6 0 10 -16 10 -35z"/>
<path d="M100 150 c0 -10 8 -24 18 -29 16 -10 16 -10 0 -11 -10 0 -18 -4 -18
-10 0 -5 9 -10 20 -10 11 0 20 5 20 10 0 6 8 5 20 -2 10 -7 23 -9 27 -5 4 5 1
12 -6 16 -11 7 -11 10 0 14 12 5 12 7 0 15 -11 8 -11 10 0 14 8 3 11 9 7 13
-13 14 -38 -4 -38 -27 0 -13 -3 -18 -8 -12 -4 6 -14 14 -22 17 -12 4 -11 6 3
6 24 1 22 21 -3 21 -13 0 -20 -7 -20 -20z"/>
<path d="M200 130 c0 -33 3 -40 20 -40 11 0 20 5 20 10 0 6 -4 10 -10 10 -5 0
-10 14 -10 30 0 17 -4 30 -10 30 -5 0 -10 -18 -10 -40z"/>
<path d="M250 131 c0 -36 3 -41 22 -41 17 0 19 3 10 12 -7 7 -12 22 -12 34 0
13 -4 26 -10 29 -6 4 -10 -10 -10 -34z"/>
<path d="M300 130 c0 -35 3 -40 23 -40 21 1 21 1 4 14 -14 11 -15 15 -5 20 11
5 11 7 0 12 -10 5 -9 9 5 20 17 13 17 13 -4 14 -20 0 -23 -5 -23 -40z"/>
<path d="M351 128 c1 -24 3 -35 6 -25 5 18 5 18 18 0 13 -16 14 -14 12 22 -1
29 -7 41 -19 43 -15 3 -18 -4 -17 -40z"/>
</g>
</svg>
